<?xml version="1.0" encoding="UTF-8"?>
<svg version="1.1" xmlns="http://www.w3.org/2000/svg" width="100" height="125">
<path d="M0 0 C2.90721752 3.14293786 4.80596451 5.54473386 5.375 9.8125 C4.87761245 14.04029414 3.20618923 15.32817564 0 18 C-0.66 18.33 -1.32 18.66 -2 19 C-0.98165824 23.58253793 0.23419616 27.60341514 2.1875 31.875 C4.37927112 37.11901535 4.23652084 41.50435182 3 47 C2.505 47.99 2.505 47.99 2 49 C1.34 49 0.68 49 0 49 C-0.04125 49.556875 -0.0825 50.11375 -0.125 50.6875 C-1.48977108 54.294395 -3.91080176 55.73038496 -7 58 C-7.66 58 -8.32 58 -9 58 C-8.57847656 59.17433594 -8.15695313 60.34867188 -7.72265625 61.55859375 C-3.94167553 72.51794157 -2.02968058 82.40973431 -2 94 C0.84879273 95.6458583 0.84879273 95.6458583 4 97 C6.58944746 95.66299965 6.58944746 95.66299965 9 94 C12.4010144 94.23728007 13.569534 94.569534 16 97 C17.2747824 103.2263056 15.48600695 108.39084332 12.4921875 113.8203125 C10.28087228 117.05045358 8.59917617 118.42536043 5 120 C3.32559867 119.7079913 1.65887168 119.37018057 0 119 C-1.6693918 118.93382651 -3.34117493 118.91445139 -5.01171875 118.9375 C-5.93404297 118.94523437 -6.85636719 118.95296875 -7.80664062 118.9609375 C-8.75732422 118.97382812 -9.70800781 118.98671875 -10.6875 119 C-12.58718337 119.02544787 -14.4869323 119.0465018 -16.38671875 119.0625 C-17.22420654 119.07410156 -18.06169434 119.08570312 -18.92456055 119.09765625 C-21 119 -21 119 -23 118 C-23 117.34 -23 116.68 -23 116 C-23.99 116.28875 -24.98 116.5775 -26 116.875 C-26.64195313 117.05289063 -27.28390625 117.23078125 -27.9453125 117.4140625 C-29.28240771 117.79536341 -30.6117087 118.20555393 -31.9296875 118.6484375 C-36.84747979 120.16920058 -40.12931379 119.8160654 -45.01953125 118.21484375 C-45.67308594 118.14394531 -46.32664063 118.07304688 -47 118 C-48.00818512 118.99174732 -49.00747167 119.99258374 -50 121 C-56.19349224 122.11062623 -61.91722707 121.33326519 -67.36328125 118.20703125 C-69.7063585 116.47908168 -71.26121154 114.31838461 -73 112 C-74.60875 111.0409375 -74.60875 111.0409375 -76.25 110.0625 C-77.1575 109.381875 -78.065 108.70125 -79 108 C-79.375 104.75 -79.375 104.75 -79 102 C-77.02 101.01 -77.02 101.01 -75 100 C-75.05800781 99.23558594 -75.11601563 98.47117187 -75.17578125 97.68359375 C-75.75382566 83.95916796 -70.682755 72.64625454 -64.35546875 60.828125 C-62.7838977 58.07180786 -62.7838977 58.07180786 -63 55 C-64.65385233 53.65080468 -66.321702 52.31866272 -68 51 C-72.68679006 43.60316127 -69.73163739 32.99336186 -68 25 C-68.928125 24.608125 -69.85625 24.21625 -70.8125 23.8125 C-74.31968762 21.81821685 -75.45835083 20.68282857 -77 17 C-77.66528854 12.62810388 -76.83412189 9.33985446 -74.46484375 5.5625 C-71.61091922 2.51831383 -68.11018632 1.30683683 -64 1 C-60.28130767 2.79048149 -57.8595075 5.10704797 -55 8 C-54.35933594 7.66226562 -53.71867187 7.32453125 -53.05859375 6.9765625 C-41.47246689 1.00219604 -31.67988501 -0.33886096 -18.9375 3.375 C-17.638125 3.58125 -16.33875 3.7875 -15 4 C-12.12448478 1.79135579 -12.12448478 1.79135579 -10 -1 C-6.34515242 -2.76847464 -3.57613434 -1.63906157 0 0 Z " fill="#2E2E33" transform="translate(82,4)"/>
<path d="M0 0 C6.54624947 5.26200261 9.15867083 11.05517516 11.2109375 19.08203125 C11.86503981 21.9301496 11.86503981 21.9301496 13.09375 24.05859375 C14.26253714 26.56241792 14.19730357 28.5024645 14.125 31.25 C14.10695313 32.14203125 14.08890625 33.0340625 14.0703125 33.953125 C14.04710938 34.62859375 14.02390625 35.3040625 14 36 C13.34 36 12.68 36 12 36 C12.12375 36.680625 12.2475 37.36125 12.375 38.0625 C11.79892447 42.57509168 9.32022105 45.02104364 6 48 C-5.43776084 55.84944371 -18.5558993 55.71911578 -31.61376953 53.41796875 C-38.79256657 52.03471029 -46.12213074 49.76754353 -51 44 C-51 43.34 -51 42.68 -51 42 C-51.66 42 -52.32 42 -53 42 C-55.95148437 30.59750284 -54.91737408 19.34046177 -49 9 C-44.68421053 5 -44.68421053 5 -42 5 C-41.79117188 4.39542969 -41.58234375 3.79085938 -41.3671875 3.16796875 C-39.46290451 0.14832001 -37.42106607 -0.41017366 -34.125 -1.6875 C-33.07570313 -2.10386719 -32.02640625 -2.52023438 -30.9453125 -2.94921875 C-21.06109101 -6.47555241 -9.02653428 -5.62591286 0 0 Z " fill="#F5F6F5" transform="translate(69,12)"/>
<path d="M0 0 C2.90721752 3.14293786 4.80596451 5.54473386 5.375 9.8125 C4.87761245 14.04029414 3.20618923 15.32817564 0 18 C-0.66 18.33 -1.32 18.66 -2 19 C-0.98165824 23.58253793 0.23419616 27.60341514 2.1875 31.875 C4.37927112 37.11901535 4.23652084 41.50435182 3 47 C2.505 47.99 2.505 47.99 2 49 C1.34 49 0.68 49 0 49 C-0.04125 49.556875 -0.0825 50.11375 -0.125 50.6875 C-1.48977108 54.294395 -3.91080176 55.73038496 -7 58 C-7.66 58 -8.32 58 -9 58 C-8.505 62.455 -8.505 62.455 -8 67 C-8.66 65.68 -9.32 64.36 -10 63 C-10.84820312 63.28875 -11.69640625 63.5775 -12.5703125 63.875 C-26.79504039 68.3768919 -38.13151745 67.55725147 -52.06542969 62.63378906 C-55.33167068 61.56372828 -58.65691524 60.79314871 -62 60 C-62.061875 59.2575 -62.12375 58.515 -62.1875 57.75 C-63.24866383 54.15836857 -65.06166338 53.22166915 -68 51 C-72.68893464 43.60652626 -69.73102434 32.99053202 -68 25 C-68.928125 24.608125 -69.85625 24.21625 -70.8125 23.8125 C-74.31968762 21.81821685 -75.45835083 20.68282857 -77 17 C-77.66528854 12.62810388 -76.83412189 9.33985446 -74.46484375 5.5625 C-71.61091922 2.51831383 -68.11018632 1.30683683 -64 1 C-60.28130767 2.79048149 -57.8595075 5.10704797 -55 8 C-54.35933594 7.66226562 -53.71867187 7.32453125 -53.05859375 6.9765625 C-41.47246689 1.00219604 -31.67988501 -0.33886096 -18.9375 3.375 C-17.638125 3.58125 -16.33875 3.7875 -15 4 C-12.12448478 1.79135579 -12.12448478 1.79135579 -10 -1 C-6.34515242 -2.76847464 -3.57613434 -1.63906157 0 0 Z M-55 11 C-55 11.66 -55 12.32 -55 13 C-55.598125 13.103125 -56.19625 13.20625 -56.8125 13.3125 C-59.94125745 14.29582377 -61.41045885 16.03071883 -63.09765625 18.8046875 C-67.89085931 29.08969812 -68.85617307 39.03668952 -66 50 C-65.34 50 -64.68 50 -64 50 C-63.63648438 50.90878906 -63.63648438 50.90878906 -63.265625 51.8359375 C-61.73812165 54.44777965 -60.40771263 55.22382497 -57.75 56.625 C-57.00234375 57.02976563 -56.2546875 57.43453125 -55.484375 57.8515625 C-42.72372849 63.75035192 -29.30731419 64.53993596 -16.12890625 60.203125 C-9.94058243 57.82359474 -4.49670734 54.82784556 -1 49 C-0.66407492 46.2895393 -0.66407492 46.2895393 -1 44 C-0.34 44 0.32 44 1 44 C1.87935011 35.34328674 -0.61529834 28.87355905 -4 21 C-4.2371875 20.29488281 -4.474375 19.58976562 -4.71875 18.86328125 C-6.77212157 12.85176581 -11.48984056 9.07728658 -16.80859375 5.9296875 C-29.20806197 0.43658975 -44.58531377 2.32109481 -55 11 Z " fill="#303137" transform="translate(82,4)"/>
<path d="M0 0 C3.00617269 3.00617269 2.59585316 5.82381598 3 10 C3.7425 10.061875 4.485 10.12375 5.25 10.1875 C8.90732095 11.2680721 9.92526089 12.85211997 12 16 C14.13492839 20.05636393 14.17820671 23.45572879 14 28 C14.66 28 15.32 28 16 28 C16 28.99 16 29.98 16 31 C17.32 30.67 18.64 30.34 20 30 C20.495 31.485 20.495 31.485 21 33 C21.66 33 22.32 33 23 33 C23 33.66 23 34.32 23 35 C16.375 35.125 16.375 35.125 13 34 C12.41798828 34.72896484 12.41798828 34.72896484 11.82421875 35.47265625 C8.77842694 38.02277316 5.68354419 37.46284785 1.859375 37.3515625 C-3.67575482 36.67101375 -7.57565064 34.66852353 -11.1875 30.4375 C-12.0846875 29.2309375 -12.0846875 29.2309375 -13 28 C-13.9075 27.525625 -14.815 27.05125 -15.75 26.5625 C-16.4925 26.046875 -17.235 25.53125 -18 25 C-18.3125 21.8125 -18.3125 21.8125 -18 19 C-16.125 17.9375 -16.125 17.9375 -14 17 C-13.34 17.33 -12.68 17.66 -12 18 C-11.4225 17.071875 -10.845 16.14375 -10.25 15.1875 C-7.00552486 10.59116022 -7.00552486 10.59116022 -4 9 C-0.75 8.8125 -0.75 8.8125 2 9 C1.67 8.443125 1.34 7.88625 1 7.3125 C-0.1309601 4.69715478 -0.15662974 2.8193354 0 0 Z " fill="#2D2E33" transform="translate(22,88)"/>
<path d="M0 0 C1.3096875 -0.01417969 2.619375 -0.02835937 3.96875 -0.04296875 C7.28480327 0.17345508 8.69617785 0.6343949 11.5 2.1875 C11.2009375 3.41726562 10.901875 4.64703125 10.59375 5.9140625 C9.05932246 12.81088205 8.40728865 19.81633953 7.64453125 26.83203125 C7.52464844 27.86457031 7.40476562 28.89710937 7.28125 29.9609375 C7.17876953 30.89341309 7.07628906 31.82588867 6.97070312 32.78662109 C6.5 35.1875 6.5 35.1875 4.5 38.1875 C1.6875 38.875 1.6875 38.875 -1.5 38.1875 C-6.98410589 32.43590214 -8.26920286 24.35901309 -9.875 16.875 C-10.14699219 15.69615234 -10.41898438 14.51730469 -10.69921875 13.30273438 C-12.63887461 4.60412384 -12.63887461 4.60412384 -11.5 1.1875 C-7.90518788 -0.33677082 -3.83836397 0.01888959 0 0 Z " fill="#F5F6F5" transform="translate(53.5,79.8125)"/>
<path d="M0 0 C2.3125 0.8125 2.3125 0.8125 4.3125 2.8125 C5.5872824 9.0388056 3.79850695 14.20334332 0.8046875 19.6328125 C-1.40662772 22.86295358 -3.08832383 24.23786043 -6.6875 25.8125 C-9 25.625 -9 25.625 -11.6875 24.8125 C-13.28874838 24.60152471 -14.89343285 24.41567724 -16.5 24.25 C-17.29019531 24.16621094 -18.08039063 24.08242187 -18.89453125 23.99609375 C-19.48621094 23.93550781 -20.07789062 23.87492187 -20.6875 23.8125 C-19.6975 23.1525 -18.7075 22.4925 -17.6875 21.8125 C-17.914375 20.925625 -18.14125 20.03875 -18.375 19.125 C-19.27366097 13.24727146 -17.18890656 7.45337776 -15.6875 1.8125 C-13.375 1.1875 -13.375 1.1875 -10.6875 0.8125 C-9.6975 1.4725 -8.7075 2.1325 -7.6875 2.8125 C-6.6046875 2.0390625 -6.6046875 2.0390625 -5.5 1.25 C-2.6875 -0.1875 -2.6875 -0.1875 0 0 Z " fill="#2C2D32" transform="translate(93.6875,98.1875)"/>
<path d="M0 0 C2.90721752 3.14293786 4.80596451 5.54473386 5.375 9.8125 C4.87761245 14.04029414 3.20618923 15.32817564 0 18 C-0.66 18.33 -1.32 18.66 -2 19 C-0.98165824 23.58253793 0.23419616 27.60341514 2.1875 31.875 C4.37927112 37.11901535 4.23652084 41.50435182 3 47 C2.505 47.99 2.505 47.99 2 49 C1.34 49 0.68 49 0 49 C-0.04125 49.556875 -0.0825 50.11375 -0.125 50.6875 C-1.48977108 54.294395 -3.91080176 55.73038496 -7 58 C-7.66 58 -8.32 58 -9 58 C-9.33 58.99 -9.66 59.98 -10 61 C-12.97 61 -15.94 61 -19 61 C-17.68 60.34 -16.36 59.68 -15 59 C-7.4360718 55.28092714 -7.4360718 55.28092714 -2 49 C-1.21053391 46.31492671 -1.21053391 46.31492671 -1 44 C-0.34 44 0.32 44 1 44 C0.01433712 35.72561952 -1.59191922 28.59438473 -5 21 C-5.433125 19.7625 -5.86625 18.525 -6.3125 17.25 C-9.49626491 11.11830462 -14.44822339 7.68099711 -20.93359375 5.5234375 C-24.2763375 4.67669334 -27.56670702 4.30654402 -31 4 C-31 3.67 -31 3.34 -31 3 C-29.2709226 2.97274659 -27.54171824 2.95349013 -25.8125 2.9375 C-24.84957031 2.92589844 -23.88664062 2.91429687 -22.89453125 2.90234375 C-20 3 -20 3 -17.296875 3.65234375 C-16.53890625 3.76707031 -15.7809375 3.88179688 -15 4 C-12.39585286 1.64587234 -12.39585286 1.64587234 -10 -1 C-6.34515242 -2.76847464 -3.57613434 -1.63906157 0 0 Z " fill="#2F3238" transform="translate(82,4)"/>
<path d="M0 0 C1.875 1 1.875 1 3 3 C3.55218402 7.81188935 3.52314543 10.00976043 1.25 14.3125 C-1.73875774 17.88240507 -3.31093638 19.75367822 -8 20.4375 C-11 20 -11 20 -13.375 18.375 C-15 16 -15 16 -15.6875 13.3125 C-14.63338665 8.23359022 -11.48902032 4.74951278 -8 1 C-5.20129973 -0.39935013 -3.09501208 -0.25265405 0 0 Z " fill="#3E3E41" transform="translate(45,26)"/>
<path d="M0 0 C0.66 0 1.32 0 2 0 C2 0.99 2 1.98 2 3 C2.66 3 3.32 3 4 3 C4.70125 3.7425 5.4025 4.485 6.125 5.25 C14.48124904 13.24293386 27.15132127 14.98825683 38.40625 15.140625 C41.83625839 15.25349541 41.83625839 15.25349541 44 14 C46.32749297 13.71762034 48.66270255 13.49689744 51 13.3125 C52.258125 13.20550781 53.51625 13.09851563 54.8125 12.98828125 C58 13 58 13 60 15 C60.125 17.625 60.125 17.625 60 20 C59.34 18.68 58.68 17.36 58 16 C57.15179688 16.28875 56.30359375 16.5775 55.4296875 16.875 C41.20495961 21.3768919 29.86848255 20.55725147 15.93457031 15.63378906 C12.66832932 14.56372828 9.34308476 13.79314871 6 13 C5.938125 12.2575 5.87625 11.515 5.8125 10.75 C4.75805222 7.18109981 2.85583252 6.27002072 0 4 C0 2.68 0 1.36 0 0 Z " fill="#27282D" transform="translate(14,51)"/>
<path d="M0 0 C0.66 0 1.32 0 2 0 C3.35386936 1.65002828 4.68678142 3.3174387 6 5 C6.66 5.33 7.32 5.66 8 6 C8.8515625 8.72265625 8.8515625 8.72265625 9.625 12.0625 C9.88539062 13.16722656 10.14578125 14.27195312 10.4140625 15.41015625 C10.60742188 16.26480469 10.80078125 17.11945313 11 18 C9.7625 18.226875 8.525 18.45375 7.25 18.6875 C4.1152352 19.47949888 3.05411504 19.94873312 0.625 22.25 C-1.0656843 25.11115804 -2.10827326 27.80464584 -3 31 C-3.33 31 -3.66 31 -4 31 C-4.43757842 9.8260665 -4.43757842 9.8260665 0 0 Z " fill="#F3F4F3" transform="translate(13,79)"/>
<path d="M0 0 C3.82964398 0.62343042 5.15414606 2.5793571 7.6875 5.4375 C8.47125 6.05625 9.255 6.675 10.0625 7.3125 C11.6875 9.4375 11.6875 9.4375 11.5 13.125 C10.6875 16.4375 10.6875 16.4375 9.6875 17.4375 C6.43185228 17.82051738 3.82581966 18.11392942 0.92578125 16.390625 C-1.24938531 14.59993098 -3.04274391 12.97701219 -4.3125 10.4375 C-4.48046875 8.5625 -4.48046875 8.5625 -4.5 6.4375 C-4.51417969 5.73625 -4.52835938 5.035 -4.54296875 4.3125 C-4.17185334 1.29325595 -2.87400794 0.54373123 0 0 Z " fill="#353538" transform="translate(63.3125,24.5625)"/>
<path d="M0 0 C3.00617269 3.00617269 2.59585316 5.82381598 3 10 C3.7425 10.061875 4.485 10.12375 5.25 10.1875 C8.90732095 11.2680721 9.92526089 12.85211997 12 16 C14.13492839 20.05636393 14.17820671 23.45572879 14 28 C14.66 28 15.32 28 16 28 C16 28.99 16 29.98 16 31 C17.32 30.67 18.64 30.34 20 30 C20.33 30.99 20.66 31.98 21 33 C21.66 33 22.32 33 23 33 C23 33.66 23 34.32 23 35 C16.25 35.125 16.25 35.125 14 34 C14 33.34 14 32.68 14 32 C13.34 32 12.68 32 12 32 C11.95101562 31.19175781 11.90203125 30.38351563 11.8515625 29.55078125 C11.77679688 28.48214844 11.70203125 27.41351563 11.625 26.3125 C11.55539063 25.25675781 11.48578125 24.20101562 11.4140625 23.11328125 C11.01239911 20.09322731 10.25930981 17.75921946 9 15 C8.01 15.66 7.02 16.32 6 17 C6 15.02 6 13.04 6 11 C5.01 11.33 4.02 11.66 3 12 C3 13.98 3 15.96 3 18 C2.01 17.01 1.02 16.02 0 15 C-2.03165952 19.33420699 -2.52060632 23.28596212 -3 28 C-3.33 28 -3.66 28 -4 28 C-4.47945098 21.26105011 -4.24510196 17.53149649 0 12 C1.39228276 7.82315171 0.7570574 4.28999194 0 0 Z " fill="#161717" transform="translate(22,88)"/>
<path d="M0 0 C0.66 0.33 1.32 0.66 2 1 C2.47607526 2.87029565 2.94214553 4.74374913 3.35546875 6.62890625 C4.0547983 9.20159132 5.07477984 11.45454686 6.1875 13.875 C8.37927112 19.11901535 8.23652084 23.50435182 7 29 C6.67 29.66 6.34 30.32 6 31 C5.34 31 4.68 31 4 31 C3.95875 31.556875 3.9175 32.11375 3.875 32.6875 C2.51022892 36.294395 0.08919824 37.73038496 -3 40 C-3.66 40 -4.32 40 -5 40 C-5.33 40.99 -5.66 41.98 -6 43 C-8.97 43 -11.94 43 -15 43 C-13.68 42.34 -12.36 41.68 -11 41 C-3.4360718 37.28092714 -3.4360718 37.28092714 2 31 C2.78946609 28.31492671 2.78946609 28.31492671 3 26 C3.66 26 4.32 26 5 26 C4.10866323 18.51746241 2.92712668 11.87325181 -0.29296875 5.0234375 C-1 3 -1 3 0 0 Z " fill="#485463" transform="translate(78,22)"/>
<path d="M0 0 C2.625 0.375 2.625 0.375 4.9375 2 C7.07725485 5.01150683 7.01866259 6.7533042 6.625 10.375 C6.295 11.035 5.965 11.695 5.625 12.375 C3.5625 13 3.5625 13 1.625 13.375 C1.955 11.395 2.285 9.415 2.625 7.375 C1.965 7.375 1.305 7.375 0.625 7.375 C0.625 8.035 0.625 8.695 0.625 9.375 C-0.035 9.375 -0.695 9.375 -1.375 9.375 C-2.035 10.365 -2.695 11.355 -3.375 12.375 C-4.48945498 10.14609005 -4.53980286 8.84444894 -4.5625 6.375 C-4.57667969 5.67375 -4.59085938 4.9725 -4.60546875 4.25 C-4.22877472 1.18537057 -2.92832204 0.46236664 0 0 Z " fill="#414143" transform="translate(63.375,24.625)"/>
<path d="M0 0 C0 0.33 0 0.66 0 1 C-1.19882813 1.03867188 -1.19882813 1.03867188 -2.421875 1.078125 C-12.79571153 1.61386304 -24.31739782 3.31739782 -32 11 C-32.66 8.69 -33.32 6.38 -34 4 C-32.515 4.99 -32.515 4.99 -31 6 C-30.35933594 5.66226562 -29.71867187 5.32453125 -29.05859375 4.9765625 C-18.73865146 -0.34489806 -11.56402137 -1.18687598 0 0 Z " fill="#3A4552" transform="translate(58,6)"/>
<path d="M0 0 C1.05078125 1.8125 1.05078125 1.8125 2 4 C1.1875 7 1.1875 7 0 10 C-1.08277351 13.54647557 -1.30421453 17.06020753 -1.5625 20.75 C-1.64628906 21.92046875 -1.73007813 23.0909375 -1.81640625 24.296875 C-1.87699219 25.18890625 -1.93757812 26.0809375 -2 27 C-2.99 26.67 -3.98 26.34 -5 26 C-5.33 26.99 -5.66 27.98 -6 29 C-6.65129797 30.34090759 -7.31513275 31.67592331 -8 33 C-8 31.02 -8 29.04 -8 27 C-6.68 26.34 -5.36 25.68 -4 25 C-4.04640625 24.20078125 -4.0928125 23.4015625 -4.140625 22.578125 C-4.41414071 14.25543277 -3.11072972 7.70738836 0 0 Z " fill="#58626E" transform="translate(11,79)"/>
<path d="M0 0 C4.71144385 1.87072035 9.38615354 3.82481934 14.0625 5.78125 C16.70026668 6.87564256 19.34582596 7.94613678 22 9 C22 9.66 22 10.32 22 11 C14.17550311 10.62139531 7.2721378 8.67515784 1.2109375 3.4609375 C0 2 0 2 0 0 Z " fill="#C5C8CB" transform="translate(18,54)"/>
<path d="M0 0 C1.65 0 3.3 0 5 0 C6.19524314 3.58572942 5.72585307 5.48919826 5.0625 9.1875 C4.4064235 13.08051022 3.87662145 16.7393864 4 20.6875 C4 21.780625 4 22.87375 4 24 C3.34 24.66 2.68 25.32 2 26 C-1.40163039 19.19673922 1.46974496 9.06376657 3 2 C2.01 1.34 1.02 0.68 0 0 Z " fill="#39434F" transform="translate(11,27)"/>
<path d="M0 0 C0.66 0 1.32 0 2 0 C2 2.64 2 5.28 2 8 C0.02 8.99 -1.96 9.98 -4 11 C-4 10.34 -4 9.68 -4 9 C-4.99 9 -5.98 9 -7 9 C-6.67 7.68 -6.34 6.36 -6 5 C-5.34 5.33 -4.68 5.66 -4 6 C-4 5.34 -4 4.68 -4 4 C-3.01 4 -2.02 4 -1 4 C-0.67 2.68 -0.34 1.36 0 0 Z " fill="#343436" transform="translate(46,29)"/>
<path d="M0 0 C2.31 0 4.62 0 7 0 C7 0.99 7 1.98 7 3 C6.34 3 5.68 3 5 3 C5.33 4.98 5.66 6.96 6 9 C7.32 9 8.64 9 10 9 C10 9.66 10 10.32 10 11 C7.69 10.67 5.38 10.34 3 10 C3 8.02 3 6.04 3 4 C1.68 3.67 0.36 3.34 -1 3 C-0.67 2.01 -0.34 1.02 0 0 Z " fill="#515050" transform="translate(52,39)"/>
<path d="M0 0 C2.625 0.25 2.625 0.25 4.4375 1.75 C4.829375 2.245 5.22125 2.74 5.625 3.25 C4.965 4.9 4.305 6.55 3.625 8.25 C3.295 7.59 2.965 6.93 2.625 6.25 C0.09766765 5.59444881 0.09766765 5.59444881 -2.375 5.25 C-2.9375 3.3125 -2.9375 3.3125 -3.375 1.25 C-2.375 0.25 -2.375 0.25 0 0 Z " fill="#1E1F21" transform="translate(16.375,13.75)"/>
<path d="M0 0 C0.99 0.33 1.98 0.66 3 1 C3.33 3.64 3.66 6.28 4 9 C2.33388095 9.042721 0.66617115 9.04063832 -1 9 C-2 8 -2 8 -2.1875 5.0625 C-2 2 -2 2 0 0 Z " fill="#1B1B1D" transform="translate(6,105)"/>
<path d="M0 0 C0.66 0 1.32 0 2 0 C2 0.99 2 1.98 2 3 C3.32 2.67 4.64 2.34 6 2 C6.33 2.99 6.66 3.98 7 5 C7.66 5 8.32 5 9 5 C9 5.66 9 6.32 9 7 C2.25 7.125 2.25 7.125 0 6 C-0.6875 4.0625 -0.6875 4.0625 -1 2 C-0.67 1.34 -0.34 0.68 0 0 Z " fill="#1F2228" transform="translate(36,116)"/>
<path d="M0 0 C0.66 0 1.32 0 2 0 C2 0.99 2 1.98 2 3 C-3.34883721 8 -3.34883721 8 -6 8 C-6.33 8.99 -6.66 9.98 -7 11 C-9.97 11 -12.94 11 -16 11 C-14.68 10.34 -13.36 9.68 -12 9 C-10.47233186 8.2216041 -8.95160991 7.42945095 -7.4375 6.625 C-6.67308594 6.22539063 -5.90867187 5.82578125 -5.12109375 5.4140625 C-2.81331482 3.87554321 -1.62626008 2.21548474 0 0 Z " fill="#38404A" transform="translate(79,54)"/>
<path d="M0 0 C0.66 0 1.32 0 2 0 C2 1.32 2 2.64 2 4 C2.66 4 3.32 4 4 4 C4.33 3.01 4.66 2.02 5 1 C5.33 1.99 5.66 2.98 6 4 C7.32 4.66 8.64 5.32 10 6 C6.7 6 3.4 6 0 6 C-1 3 -1 3 0 0 Z " fill="#1E252D" transform="translate(61,117)"/>
<path d="M0 0 C0.66 0.33 1.32 0.66 2 1 C-3 7.57142857 -3 7.57142857 -8 9 C-8 8.01 -8 7.02 -8 6 C-6.25 4.39453125 -6.25 4.39453125 -4 2.8125 C-3.2575 2.28269531 -2.515 1.75289062 -1.75 1.20703125 C-1.1725 0.80871094 -0.595 0.41039062 0 0 Z " fill="#D3D4D6" transform="translate(78,53)"/>
<path d="M0 0 C0.66 0.33 1.32 0.66 2 1 C2.74482287 3.67259973 3.40322078 6.29694119 4 9 C4.32953642 10.33427682 4.66173853 11.66790839 5 13 C4.01 12.67 3.02 12.34 2 12 C1.015625 9.78515625 1.015625 9.78515625 0.25 7.0625 C-0.01296875 6.16660156 -0.2759375 5.27070313 -0.546875 4.34765625 C-1 2 -1 2 0 0 Z " fill="#3E4B5C" transform="translate(78,22)"/>
<path d="M0 0 C11.52164009 -0.18451025 11.52164009 -0.18451025 17 1 C17 1.66 17 2.32 17 3 C13.28245041 4.37687022 11.57258568 3.46151233 8 2 C5.33612278 1.5436188 2.69169201 1.27373139 0 1 C0 0.67 0 0.34 0 0 Z " fill="#353F4C" transform="translate(51,7)"/>
<path d="M0 0 C5.28 0 10.56 0 16 0 C16 0.66 16 1.32 16 2 C14.0085944 2.38133299 12.00720923 2.71325582 10 3 C9.67 2.67 9.34 2.34 9 2 C7.48530552 1.76807135 5.96245438 1.58784762 4.4375 1.4375 C3.61121094 1.35371094 2.78492187 1.26992187 1.93359375 1.18359375 C1.29550781 1.12300781 0.65742187 1.06242187 0 1 C0 0.67 0 0.34 0 0 Z " fill="#3B4754" transform="translate(73,121)"/>
<path d="M0 0 C3.39914975 1.13304992 4.05254451 2.12518475 6 5 C3 7 3 7 -1 7 C-1.33 5.35 -1.66 3.7 -2 2 C-1.01 2.99 -0.02 3.98 1 5 C0.67 3.35 0.34 1.7 0 0 Z " fill="#1A1E22" transform="translate(49,115)"/>
<path d="M0 0 C6.93 0.495 6.93 0.495 14 1 C14 1.33 14 1.66 14 2 C12.41773035 2.19627391 10.83410729 2.38165538 9.25 2.5625 C8.36828125 2.66691406 7.4865625 2.77132813 6.578125 2.87890625 C4.11567549 2.99456676 2.33461936 2.73638695 0 2 C0 1.34 0 0.68 0 0 Z " fill="#505D6D" transform="translate(44,5)"/>
<path d="M0 0 C0.66 0 1.32 0 2 0 C2.08096803 1.45742463 2.13917774 2.91612807 2.1875 4.375 C2.22230469 5.18710938 2.25710937 5.99921875 2.29296875 6.8359375 C2.19628906 7.55007812 2.09960938 8.26421875 2 9 C1.01 9.66 0.02 10.32 -1 11 C-0.67 7.37 -0.34 3.74 0 0 Z " fill="#3F454D" transform="translate(96,101)"/>
<path d="M0 0 C0.53625 0.2475 1.0725 0.495 1.625 0.75 C0.635 0.75 -0.355 0.75 -1.375 0.75 C-1.375 1.41 -1.375 2.07 -1.375 2.75 C-3.875 4.375 -3.875 4.375 -6.375 5.75 C-7.035 5.09 -7.695 4.43 -8.375 3.75 C-2.95961538 -0.31153846 -2.95961538 -0.31153846 0 0 Z " fill="#3B4859" transform="translate(93.375,98.25)"/>
<path d="M0 0 C2.3125 0.1875 2.3125 0.1875 5 1 C6.8125 3.5625 6.8125 3.5625 8 6 C5.69 5.34 3.38 4.68 1 4 C0.67 2.68 0.34 1.36 0 0 Z " fill="#E2E5E5" transform="translate(15,50)"/>
<path d="M0 0 C0.66 0 1.32 0 2 0 C2 1.98 2 3.96 2 6 C1.01 6.495 1.01 6.495 0 7 C0 6.34 0 5.68 0 5 C-0.99 5 -1.98 5 -3 5 C-2.67 3.68 -2.34 2.36 -2 1 C-1.34 1.33 -0.68 1.66 0 2 C0 1.34 0 0.68 0 0 Z " fill="#050404" transform="translate(42,33)"/>
<path d="M0 0 C0 0.66 0 1.32 0 2 C-4.455 2.495 -4.455 2.495 -9 3 C-9 2.34 -9 1.68 -9 1 C-5.57367167 -0.61798838 -3.61944899 -1.34053666 0 0 Z " fill="#343E4A" transform="translate(20,6)"/>
<path d="M0 0 C3.37503669 1.1858237 5.64722731 2.27573689 8 5 C7.01 5.33 6.02 5.66 5 6 C2.3125 4.1875 2.3125 4.1875 0 2 C0 1.34 0 0.68 0 0 Z " fill="#C0C4C8" transform="translate(18,54)"/>
<path d="M0 0 C0.33 0.66 0.66 1.32 1 2 C1.66 2 2.32 2 3 2 C3 1.34 3 0.68 3 0 C3.66 0 4.32 0 5 0 C4.67 1.65 4.34 3.3 4 5 C3.01 5 2.02 5 1 5 C0.67 3.35 0.34 1.7 0 0 Z " fill="#0B0B0B" transform="translate(61,32)"/>
<path d="M0 0 C0.66 0.33 1.32 0.66 2 1 C2.625 3.5625 2.625 3.5625 3 6 C2.34 6 1.68 6 1 6 C1 5.34 1 4.68 1 4 C-1.97 3.505 -1.97 3.505 -5 3 C-5 2.67 -5 2.34 -5 2 C-3.35 2 -1.7 2 0 2 C0 1.34 0 0.68 0 0 Z " fill="#333A41" transform="translate(58,116)"/>
<path d="M0 0 C0.33 0 0.66 0 1 0 C1.1953125 6.0546875 1.1953125 6.0546875 1 8 C0.34 8.66 -0.32 9.32 -1 10 C-2.25 3.375 -2.25 3.375 0 0 Z " fill="#6B7989" transform="translate(14,43)"/>
<path d="M0 0 C1.65 0 3.3 0 5 0 C6.09658936 3.28976808 5.79953138 4.71303767 5 8 C4.34 7.34 3.68 6.68 3 6 C3 4.68 3 3.36 3 2 C2.01 1.34 1.02 0.68 0 0 Z " fill="#4D5B6C" transform="translate(11,27)"/>
<path d="M0 0 C-0.33 2.64 -0.66 5.28 -1 8 C-1.66 7.67 -2.32 7.34 -3 7 C-3 5.02 -3 3.04 -3 1 C-1 0 -1 0 0 0 Z " fill="#282F37" transform="translate(7,106)"/>
<path d="M0 0 C0.94875 0.350625 1.8975 0.70125 2.875 1.0625 C2.875 1.7225 2.875 2.3825 2.875 3.0625 C1.225 3.0625 -0.425 3.0625 -2.125 3.0625 C-2.125 2.4025 -2.125 1.7425 -2.125 1.0625 C-3.115 0.7325 -4.105 0.4025 -5.125 0.0625 C-3.125 -0.9375 -3.125 -0.9375 0 0 Z " fill="#D0D3D4" transform="translate(37.125,61.9375)"/>
</svg>
